<svg xmlns="http://www.w3.org/2000/svg" viewBox="0 0 429.08 400.54"><defs><style>.cls-1{fill:red;}</style></defs><title>ppt 1Recurso 1</title><g id="Capa_2" data-name="Capa 2"><g id="Capa_1-2" data-name="Capa 1"><path class="cls-1" d="M93.62,329.08l-7.7-17.9L.27,354.64,0,354.38l2.41-4.26c14.43-25.38,29.14-50.61,45.93-74.52a248.78,248.78,0,0,1,17.88-22.75c5.2-5.83,11.4-10.79,17.16-16.12q15-13.93,30.12-27.85a3.52,3.52,0,0,0,1.31-2.94c-.08-2.64,0-5.28,0-7.92a2.12,2.12,0,0,1,1.35-2.21q35.78-19,71.52-38.15l2.63-1.44-7.58-5.65c1.15-.12,1.93-.19,2.7-.29,7.09-.9,13.4-4,19.59-7.29,15.34-8.18,29.44-18.25,43.29-28.67,5.22-3.94,10.32-8,15.47-12,.38-.3.72-.62,1.13-1-1.62-3.19-.13-5.71,1.8-8.05,3.74-4.54,8.47-7.95,13.31-11.19C292.3,73.79,305.43,67,318.73,60.46c4.73-2.31,9.5-4.54,14.45-6.9l-2.59-4.67c33.61-14.57,65.79-32,98.49-48.42-17.09,18.26-32,38.2-47.16,57.9a1.84,1.84,0,0,0-.16.5c1.76.18,3.57,0,5.13.6a10.91,10.91,0,0,1,3.77,2.74c.79.8.5,1.64-.54,2.49-6.05,4.91-12.24,9.69-17.94,15C358,92.89,345.93,108,335,124a354.05,354.05,0,0,0-27.1,47A5.73,5.73,0,0,1,306,173q-23.9,16.51-47.83,33l-1.82,1.3,4.22,5.56L249.13,219c-21.46,11.32-42.89,22.69-64.39,33.93-3.81,2-8,3.34-11.82,5.23C156.7,266,142.64,277,129.51,289.24a304.93,304.93,0,0,0-34.92,38.68C94.34,328.25,94.06,328.56,93.62,329.08Z"></path><path class="cls-1" d="M234.26,327.58l-93.63,73-.31-.22c.32-.53.63-1.06,1-1.58q29.89-49.17,59.75-98.36c3.77-6.24,6.9-12.88,10.56-19.2a19.48,19.48,0,0,1,4.5-5.05c6.89-5.71,14.83-9.73,23-13.28,8.33-3.65,16.86-6.87,25.27-10.34a5.93,5.93,0,0,0,2.45-1.89q17.52-24.51,35-49.08a8.39,8.39,0,0,1,2.61-2.35q18.93-10.53,37.93-20.94c.5-.28,1-.52,2-1l-3.27,9,51.92-31.48a4.82,4.82,0,0,1-.32.85c-6.33,8.08-9.63,17.57-12.76,27.15-6.33,19.4-12.72,38.79-19,58.22-1.17,3.63-1.81,7.43-2.75,11.4-3.12-2.08-6.37-4.23-9.77-6.48-.61.64-1.19,1.23-1.73,1.84q-28.21,31.48-56.45,63a9.5,9.5,0,0,1-2.14,1.87q-30.89,18.08-61.79,36.1c-.2.12-.41.2-1,.49,3.23-7.35,6.33-14.37,9.42-21.38Z"></path><path class="cls-1" d="M217.2,118.41c-1.68-2.64-3.18-4.87-4.52-7.19-.7-1.21-1.38-1.35-2.58-.75a59.12,59.12,0,0,0-20.19,16.46c-.37.46-.75.9-1.39,1.68,1.1-4.86,3.71-9.22,1.1-14.24-2.78,1.88-5.31,3.57-7.81,5.3-19.06,13.14-38,26.49-55.54,41.62-5,4.33-9.55,9.25-14.29,13.92a5.47,5.47,0,0,0-1.3,1.71c-1.23,3.12-3.94,3.91-6.79,4.8-25.79,8-51.5,16.25-76.6,26.25-5,2-9.89,4.23-15.36,6.57,2.1-2,3.84-3.61,5.56-5.25,17.64-16.87,34.12-34.74,48.05-54.86a156.15,156.15,0,0,0,15.33-27.21,6.52,6.52,0,0,1,2.67-2.43c16.59-10.24,32.93-20.86,48.5-32.6,8.05-6.06,16-12.27,22.65-19.93A35.12,35.12,0,0,0,159,66.07c1.83-3.35,1.44-5.06-1.31-7.75,46-17.76,92.28-34.56,135.6-58.32-2.41,2.78-4.88,5.6-7.31,8.45C268.44,29,251.46,50,236.58,72.55c-6.08,9.21-11.75,18.66-15.83,29-1.86,4.7-2.52,9.59-3.08,14.53C217.6,116.7,217.42,117.33,217.2,118.41Z"></path></g></g></svg>